<?xml version="1.0" encoding="utf-8"?>
<!-- Generator: Adobe Illustrator 18.0.0, SVG Export Plug-In . SVG Version: 6.00 Build 0)  -->
<!DOCTYPE svg PUBLIC "-//W3C//DTD SVG 1.1//EN" "http://www.w3.org/Graphics/SVG/1.1/DTD/svg11.dtd">
<svg version="1.1"
	 id="Art" xmlns:rdf="http://www.w3.org/1999/02/22-rdf-syntax-ns#" xmlns:sodipodi="http://sodipodi.sourceforge.net/DTD/sodipodi-0.dtd" xmlns:inkscape="http://www.inkscape.org/namespaces/inkscape" xmlns:svg="http://www.w3.org/2000/svg" xmlns:ns1="http://sozi.baierouge.fr" xmlns:cc="http://web.resource.org/cc/" xmlns:dc="http://purl.org/dc/elements/1.1/"
	 xmlns="http://www.w3.org/2000/svg" xmlns:xlink="http://www.w3.org/1999/xlink" x="0px" y="0px"
	 viewBox="-754.7 -754.7 2048 2048" enable-background="new -754.7 -754.7 2048 2048" xml:space="preserve">
<radialGradient id="SVGID_1_" cx="232.2063" cy="137.1967" r="397.0211" gradientTransform="matrix(1.1591 -1.1324 0.6955 0.6794 -190.6035 271.8136)" gradientUnits="userSpaceOnUse">
	<stop  offset="0" style="stop-color:#00C03E"/>
	<stop  offset="1" style="stop-color:#0A922D"/>
</radialGradient>
<path fill="url(#SVGID_1_)" stroke="#231F20" d="M566.5,109.8c0,0,84.8-184.3,115.9-238.3s55.4-143.7,17.3-248.5
	S599.4-574.9,557.9-610.4c-41.5-35.5-254.4,3.4-498.3,182.6S-283.1-39-305.6,25.2s-91.7,260.4-55.4,461.5s95.2,302.6,252.6,333
	s249.2-50.7,275.1-89.6s60.6-84.5,19-170.7S139.6,403.9,174,314.3s101.8-133.5,159-167.4C390,113.1,492.1,94.5,566.5,109.8
	L566.5,109.8z"/>
<radialGradient id="SVGID_2_" cx="158.745" cy="579.7712" r="151.103" gradientTransform="matrix(1.1591 -1.1324 0.6955 0.6794 -533.6668 596.6753)" gradientUnits="userSpaceOnUse">
	<stop  offset="0" style="stop-color:#00C03E"/>
	<stop  offset="1" style="stop-color:#0A922D"/>
</radialGradient>
<path fill="url(#SVGID_2_)" stroke="#231F20" d="M-234.7,794.7c0,0,114.6,67.7,258.6,49.1c0,0,15.3,21,28.2,19.2
	c0,0,11.6-11.1,10.4-29.8c0,0,170.4-53.5,166.1-216.9c0,0,33.1,35.3,69.9,58.7c36.8,23.3,46.6,65.3,42.3,104.2
	c-4.3,38.9-9.2,116.1-87,165.8s-156.5,60.3-204.7,60.3C-41,1005.2-148.8,913.2-234.7,794.7L-234.7,794.7z"/>
<radialGradient id="SVGID_3_" cx="304.0111" cy="624.7722" r="137.6173" gradientTransform="matrix(1.1591 -1.1324 0.6955 0.6794 -495.2187 802.6589)" gradientUnits="userSpaceOnUse">
	<stop  offset="0" style="stop-color:#00C03E"/>
	<stop  offset="1" style="stop-color:#0A922D"/>
</radialGradient>
<path fill="url(#SVGID_3_)" stroke="#231F20" d="M50.1,1029.2c0,0,131.3,2.8,237.5-79.3c0,0,16,7.3,25.4-0.2c0,0,3.9-14.3-6.2-28.7
	c0,0,113.5-113.2,30.3-241.7c0,0,41.4,3.8,81.5,11c28.7,5.1,68.6,35.2,84.5,57.6c21.3,29.9,49.3,97,11.3,173.1
	c-38,76-95.8,121.3-134.4,143.8C307.9,1106.9,176.7,1083.7,50.1,1029.2L50.1,1029.2z"/>
<radialGradient id="SVGID_4_" cx="462.2856" cy="613.8499" r="115.2556" gradientTransform="matrix(1.1591 -1.1324 0.6955 0.6794 -411.6326 971.8124)" gradientUnits="userSpaceOnUse">
	<stop  offset="0" style="stop-color:#00C03E"/>
	<stop  offset="1" style="stop-color:#0A922D"/>
</radialGradient>
<path fill="url(#SVGID_4_)" stroke="#231F20" d="M395.9,1077.8c0,0,102.2-49.2,144.4-160.6c0,0,21.6-3.1,25.3-13.1
	c0,0-3.7-12.7-18.2-18.9c0,0,33.1-138.5-90.5-197.9c0,0,33.2-16.2,67.1-29.2c24.2-9.3,68.6-4.9,91.3,4.9
	c30.2,13,83.1,51.1,89.8,126.4c6.8,75.4-15.9,136.4-34.6,171.3C635.5,1026,517.7,1061,395.9,1077.8L395.9,1077.8z"/>
<radialGradient id="SVGID_5_" cx="556.0386" cy="543.9604" r="111.8419" gradientTransform="matrix(1.1591 -1.1324 0.6955 0.6794 -318.0148 1013.5378)" gradientUnits="userSpaceOnUse">
	<stop  offset="0" style="stop-color:#00C03E"/>
	<stop  offset="1" style="stop-color:#0A922D"/>
</radialGradient>
<path fill="url(#SVGID_5_)" stroke="#231F20" d="M695,961.8c0,0,46.3-81.9,31.3-185.8c0,0,13.5-9.7,12.4-18.9c0,0-5.7-8.4-19.5-7.8
	c0,0-41.1-122.2-161.9-121.7c0,0,21.6-34.2,43.1-57.4c15.3-16.5,58.5-23.9,80.3-24.9c28.9-1.3,93.8,14.5,129.2,71.1
	c35.4,56.6,43.2,111.1,42.4,145.7C850.8,826.6,783.9,902.2,695,961.8L695,961.8z"/>
<radialGradient id="SVGID_6_" cx="586.3587" cy="431.0354" r="98.2954" gradientTransform="matrix(1.1591 -1.1324 0.6955 0.6794 -224.9227 943.7561)" gradientUnits="userSpaceOnUse">
	<stop  offset="0" style="stop-color:#00C03E"/>
	<stop  offset="1" style="stop-color:#0A922D"/>
</radialGradient>
<path fill="url(#SVGID_6_)" stroke="#231F20" d="M869.8,738.3c0,0-6.8-87.7-68.3-159c0,0-0.1-4.2-3.9-11.5c0,0-6-6.2-14.4-5.4
	c0,0-90.1-73.1-180.9-17c0,0-0.3-35.8,4.7-63.1c3.5-19.5,32.6-45,48.5-55.8c21.1-14.3,77.7-32.4,131.7-6.1
	c54.1,26.3,86.3,63.8,102.4,90.2C919.8,559.9,908,652.3,869.8,738.3L869.8,738.3z"/>
<radialGradient id="SVGID_7_" cx="577.7689" cy="315.3547" r="85.1484" gradientTransform="matrix(1.1591 -1.1324 0.6955 0.6794 -148.5953 827.3737)" gradientUnits="userSpaceOnUse">
	<stop  offset="0" style="stop-color:#00C03E"/>
	<stop  offset="1" style="stop-color:#0A922D"/>
</radialGradient>
<path fill="url(#SVGID_7_)" stroke="#231F20" d="M903.3,496.3c0,0-40.7-71.2-121.5-103.3c0,0-1.8-3.5-7.9-7.9c0,0-7.5-2.4-14.4,2
	c0,0-105.7-20.5-160.5,68.8c0,0-12.4-23.5-19.3-48.9c-8.1-30.1,7.8-59.9,17-76.3c12.2-21.9,53.1-49.4,109.6-51.9
	c56.4-2.6,90.4,11.8,114.6,26.8C866.1,333.4,901.4,405.9,903.3,496.3L903.3,496.3z"/>
<radialGradient id="SVGID_8_" cx="526.4043" cy="249.5314" r="84.3956" gradientTransform="matrix(1.1591 -1.1324 0.6955 0.6794 -127.4787 708.5225)" gradientUnits="userSpaceOnUse">
	<stop  offset="0" style="stop-color:#00C03E"/>
	<stop  offset="1" style="stop-color:#0A922D"/>
</radialGradient>
<path fill="url(#SVGID_8_)" stroke="#231F20" d="M818.5,286.6c0,0-66.7-37.1-146.7-26.5c0,0-3.1-1.9-10.1-2.7c0,0-7.2,1.4-10.6,7.9
	c0,0-94.4,30.5-95.4,123.4c0,0-21.2-12.7-38.8-29.3c-20.9-19.7-22.5-49.6-23-66.3c-0.7-22.2,18.9-61.4,62.8-88.1
	c43.9-26.7,77.9-30.5,104.5-29.6C710.8,177.1,773.7,217.6,818.5,286.6L818.5,286.6z"/>
<radialGradient id="SVGID_9_" cx="443.9301" cy="224.597" r="75.8849" gradientTransform="matrix(1.1591 -1.1324 0.6955 0.6794 -149.735 592.143)" gradientUnits="userSpaceOnUse">
	<stop  offset="0" style="stop-color:#00C03E"/>
	<stop  offset="1" style="stop-color:#0A922D"/>
</radialGradient>
<path fill="url(#SVGID_9_)" stroke="#231F20" d="M652.2,160.6c0,0-69.9-1-128.5,42.2c0,0-3.3-0.2-9.2,2.2c0,0-5.1,4.3-4.7,10.9
	c0,0-60.8,65.4-19,140.6c0,0-22.6-1-44.3-6.7c-25.6-6.8-40.6-30.2-48.7-43.5c-10.7-17.6-13.2-57.6,9.3-98.1
	c22.6-40.5,47.8-58.3,69.3-69C516.5,119.1,585.1,124.4,652.2,160.6L652.2,160.6z"/>
<radialGradient id="SVGID_10_" cx="348.9181" cy="231.7017" r="61.552" gradientTransform="matrix(1.1591 -1.1324 0.6955 0.6794 -200.2928 491.1054)" gradientUnits="userSpaceOnUse">
	<stop  offset="0" style="stop-color:#00C03E"/>
	<stop  offset="1" style="stop-color:#0A922D"/>
</radialGradient>
<path fill="url(#SVGID_10_)" stroke="#231F20" d="M442.1,136c0,0-31.3,26.5-62.1,83.3c0,0-2.2,1.3-5.2,6.4c0,0-2,4-1,9.5
	c0,0-23.1,76.4,43.7,125.8c0,0-19.3,6.9-39.8,9.5c-24.3,3-46.7-11.7-59.1-20.1c-16.4-11.2-31.7-41.5-30-83.6
	c1.7-42.1,10.6-55.3,24-71.9C337.7,164,372,144.5,442.1,136L442.1,136z"/>
<radialGradient id="SVGID_11_" cx="302.0297" cy="272.7048" r="59.3045" gradientTransform="matrix(1.1591 -1.1324 0.6955 0.6794 -251.3208 475.8151)" gradientUnits="userSpaceOnUse">
	<stop  offset="0" style="stop-color:#00C03E"/>
	<stop  offset="1" style="stop-color:#0A922D"/>
</radialGradient>
<path fill="url(#SVGID_11_)" stroke="#231F20" d="M285.6,211.5c0,0-13,32.9-11.5,88.7c0,0-1.2,1.9-1.2,7c0,0,0.3,3.9,3.7,7.7
	c0,0,16.9,67.9,94.1,79.3c0,0-12.5,13-27.9,23.2c-18.3,12-43.4,9.6-57.4,8.1c-18.6-2.1-45.1-19.3-63.4-52.3
	c-18.3-33-17.2-46.8-14-64.8C214.1,274.6,232.8,246,285.6,211.5L285.6,211.5z"/>
<radialGradient id="SVGID_12_" cx="283.3" cy="336.7675" r="50.8684" gradientTransform="matrix(1.1591 -1.1324 0.6955 0.6794 -304.8663 513.6711)" gradientUnits="userSpaceOnUse">
	<stop  offset="0" style="stop-color:#00C03E"/>
	<stop  offset="1" style="stop-color:#0A922D"/>
</radialGradient>
<path fill="url(#SVGID_12_)" stroke="#231F20" d="M194.8,340.9c0,0,5.1,30,31.5,70.6c0,0-0.1,1.9,2.3,5.7c0,0,2,2.8,6.2,4.1
	c0,0,43.5,42.9,106.9,17.6c0,0,0.1,18.6-6.9,32.8c-8.4,16.8-27.1,21.1-43.2,27.4c-15.2,5.9-42.7,5.4-71.5-11
	c-28.7-16.4-34.2-27.1-39.9-41.8C169.4,418.7,170.5,389.4,194.8,340.9L194.8,340.9z"/>
<radialGradient id="SVGID_13_" cx="291.5039" cy="406.4995" r="43.9116" gradientTransform="matrix(1.1591 -1.1324 0.6955 0.6794 -349.4234 587.2525)" gradientUnits="userSpaceOnUse">
	<stop  offset="0" style="stop-color:#00C03E"/>
	<stop  offset="1" style="stop-color:#0A922D"/>
</radialGradient>
<path fill="url(#SVGID_13_)" stroke="#231F20" d="M184.8,480.7c0,0,17.5,21.5,57.2,41.3c0,0,0.8,1.6,4.4,3.5c0,0,2.8,1.3,6.9,0.3
	c0,0,54.6,13.5,95-36.9c0,0,8.4,14.8,9,29.5c0.7,17.4-12.7,29.8-23,42.5c-9.8,12-32.4,24.7-63.2,25.2c-30.8,0.6-39.9-5.3-51.2-14.3
	C199,554.9,186.8,530.9,184.8,480.7L184.8,480.7z"/>
<radialGradient id="SVGID_14_" cx="323.9694" cy="437.8226" r="41.7063" gradientTransform="matrix(1.1591 -1.1324 0.6955 0.6794 -355.6202 652.8945)" gradientUnits="userSpaceOnUse">
	<stop  offset="0" style="stop-color:#00C03E"/>
	<stop  offset="1" style="stop-color:#0A922D"/>
</radialGradient>
<path fill="url(#SVGID_14_)" stroke="#231F20" d="M374.7,527.7c0,0-9.3,88.6-128.3,71.4c0,0,46.2,61.6,119.3,32.3
	C365.7,631.4,441.9,580.6,374.7,527.7L374.7,527.7z"/>
<radialGradient id="SVGID_15_" cx="376.6011" cy="450.7647" r="35.5452" gradientTransform="matrix(1.1591 -1.1324 0.6955 0.6794 -339.3516 724.425)" gradientUnits="userSpaceOnUse">
	<stop  offset="0" style="stop-color:#00C03E"/>
	<stop  offset="1" style="stop-color:#0A922D"/>
</radialGradient>
<path fill="url(#SVGID_15_)" stroke="#231F20" d="M412.5,545.1c0,0,42.1,67-57.7,115.1c0,0,65.8,19.4,105.1-38.2
	C459.8,622,492.9,548.3,412.5,545.1L412.5,545.1z"/>
<radialGradient id="SVGID_16_" cx="423.6051" cy="446.9297" r="30.8986" gradientTransform="matrix(1.1591 -1.1324 0.6955 0.6794 -314.1172 774.1146)" gradientUnits="userSpaceOnUse">
	<stop  offset="0" style="stop-color:#00C03E"/>
	<stop  offset="1" style="stop-color:#0A922D"/>
</radialGradient>
<path fill="url(#SVGID_16_)" stroke="#231F20" d="M457.9,544.5c0,0,59.3,35.6-5.4,114.5c0,0,65.4-7.3,70.4-71
	C522.9,588,525.4,514.1,457.9,544.5L457.9,544.5z"/>
<radialGradient id="SVGID_17_" cx="446.8372" cy="425.3603" r="32.1736" gradientTransform="matrix(1.1591 -1.1324 0.6955 0.6794 -287.9624 780.5352)" gradientUnits="userSpaceOnUse">
	<stop  offset="0" style="stop-color:#00C03E"/>
	<stop  offset="1" style="stop-color:#0A922D"/>
</radialGradient>
<path fill="url(#SVGID_17_)" stroke="#231F20" d="M484.1,519.4c0,0,69.4,5.7,48,104.6c0,0,54.2-40.2,28.3-90.6
	C534.6,483,493.9,508.3,484.1,519.4L484.1,519.4z"/>
<radialGradient id="SVGID_18_" cx="455.2324" cy="386.2858" r="27.0675" gradientTransform="matrix(1.1591 -1.1324 0.6955 0.6794 -256.7569 754.0154)" gradientUnits="userSpaceOnUse">
	<stop  offset="0" style="stop-color:#00C03E"/>
	<stop  offset="1" style="stop-color:#0A922D"/>
</radialGradient>
<path fill="url(#SVGID_18_)" stroke="#231F20" d="M494.2,490.7c0,0,53.9-26.6,86,52.6c0,0,20.5-52.3-22.9-76.4
	C513.7,442.7,496,478.5,494.2,490.7L494.2,490.7z"/>
<radialGradient id="SVGID_19_" cx="454.213" cy="348.3674" r="23.4678" gradientTransform="matrix(1.1591 -1.1324 0.6955 0.6794 -230.8756 717.9011)" gradientUnits="userSpaceOnUse">
	<stop  offset="0" style="stop-color:#00C03E"/>
	<stop  offset="1" style="stop-color:#0A922D"/>
</radialGradient>
<path fill="url(#SVGID_19_)" stroke="#231F20" d="M492.3,460.8c0,0,31.5-44.7,93.1,5.4c0,0-7.1-51.1-53-51.8
	C486.4,413.7,488.3,450.2,492.3,460.8L492.3,460.8z"/>
<radialGradient id="SVGID_20_" cx="434.9597" cy="327.9774" r="22.0947" gradientTransform="matrix(1.1591 -1.1324 0.6955 0.6794 -225.9389 677.3002)" gradientUnits="userSpaceOnUse">
	<stop  offset="0" style="stop-color:#00C03E"/>
	<stop  offset="1" style="stop-color:#0A922D"/>
</radialGradient>
<path fill="url(#SVGID_20_)" stroke="#231F20" d="M475.3,436.2c0,0,4.4-47,73-34.6c0,0-27.6-35.8-62.8-17.3
	C450.4,402.9,467.7,429.9,475.3,436.2L475.3,436.2z"/>
<radialGradient id="SVGID_21_" cx="403.9031" cy="319.8012" r="18.9496" gradientTransform="matrix(1.1591 -1.1324 0.6955 0.6794 -235.1634 634.5946)" gradientUnits="userSpaceOnUse">
	<stop  offset="0" style="stop-color:#00C03E"/>
	<stop  offset="1" style="stop-color:#0A922D"/>
</radialGradient>
<path fill="url(#SVGID_21_)" stroke="#231F20" d="M445,424.6c0,0-16-37.8,41.7-55.3c0,0-36-16.6-55.3,11.5
	C412.1,408.9,436.5,422.7,445,424.6L445,424.6z"/>
<radialGradient id="SVGID_22_" cx="375.237" cy="327.5667" r="15.7833" gradientTransform="matrix(1.1591 -1.1324 0.6955 0.6794 -254.3271 609.2938)" gradientUnits="userSpaceOnUse">
	<stop  offset="0" style="stop-color:#00C03E"/>
	<stop  offset="1" style="stop-color:#0A922D"/>
</radialGradient>
<path fill="url(#SVGID_22_)" stroke="#231F20" d="M427,433.7c0,0-33.7-11.8-11.9-57.6c0,0-31.4,12.7-24.3,40.8
	C397.9,445,420.9,437.9,427,433.7L427,433.7z"/>
<radialGradient id="SVGID_23_" cx="362.3039" cy="345.8334" r="14.0489" gradientTransform="matrix(1.1591 -1.1324 0.6955 0.6794 -273.2403 611.4905)" gradientUnits="userSpaceOnUse">
	<stop  offset="0" style="stop-color:#00C03E"/>
	<stop  offset="1" style="stop-color:#0A922D"/>
</radialGradient>
<path fill="url(#SVGID_23_)" stroke="#231F20" d="M408.4,448.5c0,0-29.9,6.4-35.3-36.4c0,0-16.9,23.1,1.3,40.3
	C392.6,469.6,406,454.3,408.4,448.5L408.4,448.5z"/>
<radialGradient id="SVGID_24_" cx="358.6112" cy="370.0069" r="11.4387" gradientTransform="matrix(1.1591 -1.1324 0.6955 0.6794 -291.825 629.5966)" gradientUnits="userSpaceOnUse">
	<stop  offset="0" style="stop-color:#00C03E"/>
	<stop  offset="1" style="stop-color:#0A922D"/>
</radialGradient>
<path fill="url(#SVGID_24_)" stroke="#231F20" d="M402.8,470.1c0,0-18.5,18.7-43.6-9.8c0,0-0.8,24.7,20.8,28.6
	C401.8,492.9,403.9,475.4,402.8,470.1L402.8,470.1z"/>
<radialGradient id="SVGID_25_" cx="366.6551" cy="387.6259" r="10.2296" gradientTransform="matrix(1.1591 -1.1324 0.6955 0.6794 -300.2163 654.9497)" gradientUnits="userSpaceOnUse">
	<stop  offset="0" style="stop-color:#00C03E"/>
	<stop  offset="1" style="stop-color:#0A922D"/>
</radialGradient>
<path fill="url(#SVGID_25_)" stroke="#231F20" d="M410.2,490.5c0,0-4.4,21.7-35.7,12.6c0,0,11.1,18,28.4,11
	C420.1,507.2,413.5,493.9,410.2,490.5L410.2,490.5z"/>
<radialGradient id="SVGID_26_" cx="383.7718" cy="395.5081" r="7.6292" gradientTransform="matrix(1.1591 -1.1324 0.6955 0.6794 -297.4801 681.5991)" gradientUnits="userSpaceOnUse">
	<stop  offset="0" style="stop-color:#00C03E"/>
	<stop  offset="1" style="stop-color:#0A922D"/>
</radialGradient>
<path fill="url(#SVGID_26_)" stroke="#231F20" d="M424.1,502.9c0,0,8.9,14.4-13.5,24.9c0,0,15.6,4.6,21.7-8
	C438.4,507.3,427.6,503.1,424.1,502.9L424.1,502.9z"/>
</svg>
